<?xml version="1.0" encoding="iso-8859-1"?>
<!-- Generator: Adobe Illustrator 19.0.0, SVG Export Plug-In . SVG Version: 6.00 Build 0)  -->
<svg version="1.1" id="Layer_1" xmlns="http://www.w3.org/2000/svg" xmlns:xlink="http://www.w3.org/1999/xlink" x="0px" y="0px"
	 viewBox="0 0 504.123 504.123" style="enable-background:new 0 0 504.123 504.123;" xml:space="preserve">
<path style="fill:#B2A47D;" d="M317.901,113.798H186.23c-10.752,0-19.511-8.743-19.511-19.527V19.519
	C166.719,8.759,175.47,0,186.23,0h131.679c10.768,0,19.527,8.751,19.527,19.519v74.76
	C337.428,105.055,328.676,113.798,317.901,113.798z M186.23,19.519v74.76h131.694l-0.016-74.76
	C317.909,19.519,186.23,19.519,186.23,19.519z"/>
<path style="fill:#9E906C;" d="M317.901,17.069H186.23c-10.752,0-19.511,8.751-19.511,19.511v57.698
	c0,10.776,8.751,19.527,19.511,19.527h131.679c10.768,0,19.527-8.743,19.527-19.527V36.58
	C337.428,25.821,328.676,17.069,317.901,17.069z M317.917,111.364H186.23V94.279V36.58V19.519h131.679l0.016,74.76l0,0v17.085
	H317.917z"/>
<g>
	<path style="fill:#7C400F;" d="M159.984,445.409c0,17.006-13.785,30.775-30.799,30.775H36.844
		c-16.998,0-30.783-13.769-30.783-30.775V255.606c0-17.006,13.785-30.791,30.783-30.791h92.333
		c17.014,0,30.799,13.785,30.799,30.791v189.802H159.984z"/>
	<path style="fill:#7C400F;" d="M498.054,445.409c0,17.006-13.769,30.775-30.767,30.775h-92.333
		c-16.998,0-30.783-13.769-30.783-30.775V255.606c0-17.006,13.785-30.791,30.783-30.791h92.341
		c16.998,0,30.767,13.785,30.767,30.791v189.802H498.054z"/>
</g>
<g>
	<path style="fill:#AA5F22;" d="M129.178,224.815H28.03c-16.998,0-21.969,13.785-21.969,30.791v53.09
		c0,16.991,13.785,30.775,30.783,30.775h92.333c17.014,0,30.799-13.785,30.799-30.775v-53.09
		C159.984,238.6,146.2,224.815,129.178,224.815z"/>
	<path style="fill:#AA5F22;" d="M476.101,224.815H374.953c-16.998,0-30.783,13.785-30.783,30.791v53.09
		c0,16.991,13.785,30.775,30.783,30.775h92.341c16.998,0,30.767-13.785,30.767-30.775v-53.09
		C498.054,238.6,493.107,224.815,476.101,224.815z"/>
</g>
<path style="fill:#935116;" d="M431.384,468.456c0,19.7-15.967,35.667-35.675,35.667H108.43c-19.708,0-35.675-15.967-35.675-35.667
	V84.094c0-19.7,15.967-35.667,35.675-35.667h287.279c19.708,0,35.675,15.967,35.675,35.667V468.456z"/>
<path style="fill:#8E4916;" d="M395.701,61.653H108.43c-19.708,0-35.675,15.967-35.675,35.659v138.886
	c0,19.7,15.967,35.667,35.675,35.667h287.279c19.708,0,35.675-15.967,35.675-35.667V97.312
	C431.384,77.619,415.409,61.653,395.701,61.653z"/>
<path style="fill:#AA5F22;" d="M395.701,48.419H108.43c-19.708,0-35.675,15.967-35.675,35.667v138.87
	c0,19.7,15.967,35.667,35.675,35.667h287.279c19.708,0,35.675-15.967,35.675-35.667V84.086
	C431.384,64.394,415.409,48.419,395.701,48.419z"/>
<g>
	<path style="fill:#D18E22;" d="M134.132,270.533c-2.505,0-4.86-0.512-7.058-1.378v17.912c0,10.689,8.68,19.354,19.354,19.354h12.91
		c10.689,0,19.354-8.665,19.354-19.354v-17.912c-2.182,0.859-4.553,1.378-7.058,1.378L134.132,270.533L134.132,270.533z"/>
	<path style="fill:#D18E22;" d="M171.626,201.586c2.505,0,4.876,0.504,7.058,1.371V51.594c0-10.673-8.665-19.346-19.354-19.346
		h-12.902c-10.673,0-19.354,8.672-19.354,19.346v151.355c2.198-0.851,4.553-1.363,7.058-1.363H171.626z"/>
</g>
<path style="fill:#BBE6EA;" d="M171.626,201.586h-37.494c-2.505,0-4.86,0.504-7.058,1.363v66.206
	c2.198,0.859,4.553,1.378,7.058,1.378h37.494c2.505,0,4.876-0.512,7.058-1.378v-66.198
	C176.502,202.09,174.131,201.586,171.626,201.586z M165.246,256.977v1.82c0,3.466-2.812,6.286-6.262,6.286h-12.201
	c-3.458,0-6.278-2.812-6.278-6.286v-1.82c-5.782-0.614-10.35-5.348-10.35-11.303v-18.038c0-6.372,5.167-11.54,11.54-11.54h22.386
	c6.372,0,11.54,5.167,11.54,11.54v18.038C175.612,251.636,171.028,256.37,165.246,256.977z"/>
<path style="fill:#D18E22;" d="M164.072,216.103h-22.386c-6.372,0-11.54,5.167-11.54,11.54v18.038
	c0,5.955,4.569,10.681,10.35,11.303v-7.979c0-3.474,2.812-6.294,6.278-6.294h12.201c3.45,0,6.262,2.812,6.262,6.294v7.979
	c5.782-0.607,10.366-5.341,10.366-11.303v-18.038C175.612,221.271,170.445,216.103,164.072,216.103z"/>
<path style="fill:#A2B9BC;" d="M141.686,257.213c-0.417,0-0.772-0.189-1.182-0.236v1.82c0,3.466,2.812,6.286,6.278,6.286h12.201
	c3.45,0,6.262-2.812,6.262-6.286v-1.82c-0.417,0.055-0.772,0.236-1.166,0.236H141.686z"/>
<path style="fill:#BBE6EA;" d="M158.984,242.704h-12.201c-3.458,0-6.278,2.812-6.278,6.294v7.979
	c0.417,0.047,0.772,0.236,1.182,0.236h22.386c0.402,0,0.756-0.181,1.166-0.236v-7.979
	C165.246,245.524,162.426,242.704,158.984,242.704z"/>
<g>
	<path style="fill:#D18E22;" d="M332.505,270.533c-2.489,0-4.876-0.512-7.058-1.386v17.92c0,10.689,8.696,19.354,19.369,19.354
		h12.91c10.673,0,19.338-8.665,19.338-19.354v-17.912c-2.182,0.859-4.569,1.378-7.058,1.378L332.505,270.533L332.505,270.533z"/>
	<path style="fill:#D18E22;" d="M369.999,201.586c2.489,0,4.876,0.504,7.058,1.371V51.594c0-10.673-8.665-19.346-19.338-19.346
		h-12.91c-10.673,0-19.369,8.672-19.369,19.346v151.363c2.182-0.859,4.569-1.371,7.058-1.371H369.999z"/>
</g>
<path style="fill:#BBE6EA;" d="M369.999,201.586h-37.494c-2.489,0-4.876,0.504-7.058,1.371v66.19
	c2.182,0.866,4.569,1.386,7.058,1.386h37.494c2.489,0,4.876-0.512,7.058-1.378v-66.198
	C374.875,202.09,372.488,201.586,369.999,201.586z M363.626,256.977v1.82c0,3.466-2.796,6.286-6.294,6.286h-12.17
	c-3.474,0-6.278-2.812-6.278-6.286v-1.82c-5.782-0.614-10.35-5.348-10.35-11.303v-18.038c0-6.372,5.167-11.54,11.54-11.54h22.386
	c6.357,0,11.524,5.167,11.524,11.54v18.038C373.984,251.636,369.392,256.37,363.626,256.977z"/>
<path style="fill:#D18E22;" d="M362.461,216.103h-22.386c-6.372,0-11.54,5.167-11.54,11.54v18.038
	c0,5.955,4.569,10.681,10.35,11.303v-7.979c0-3.474,2.796-6.294,6.278-6.294h12.17c3.489,0,6.294,2.812,6.294,6.294v7.979
	c5.766-0.607,10.35-5.341,10.35-11.303v-18.038C373.984,221.271,368.809,216.103,362.461,216.103z"/>
<path style="fill:#A2B9BC;" d="M340.074,257.213c-0.417,0-0.772-0.189-1.182-0.236v1.82c0,3.466,2.796,6.286,6.278,6.286h12.17
	c3.489,0,6.294-2.812,6.294-6.286v-1.82c-0.417,0.055-0.772,0.236-1.166,0.236H340.074z"/>
<path style="fill:#BBE6EA;" d="M357.333,242.704h-12.17c-3.474,0-6.278,2.812-6.278,6.294v7.979
	c0.417,0.047,0.772,0.236,1.182,0.236h22.386c0.402,0,0.756-0.181,1.166-0.236v-7.979
	C363.626,245.524,360.83,242.704,357.333,242.704z"/>
<path style="fill:#6D350F;" d="M394.843,428.056c0,29.223-23.694,52.917-52.925,52.917H162.213
	c-29.231,0-52.925-23.694-52.925-52.917v-62.85c0-29.231,23.694-52.925,52.925-52.925h179.704c29.231,0,52.925,23.694,52.925,52.925
	V428.056z"/>
<path style="fill:#7C3D13;" d="M341.918,312.288H162.213c-29.231,0-52.925,23.694-52.925,52.925v2.576
	c0,29.223,23.694,52.917,52.925,52.917h179.704c29.231,0,52.925-23.694,52.925-52.917v-2.576
	C394.843,335.974,371.149,312.288,341.918,312.288z"/>
<g>
	<path style="fill:#F9AB3A;" d="M158.763,62.952c0.859,0.866,0.859,2.261,0,3.127l0,0c-0.874,0.874-2.261,0.874-3.135,0.008
		l-11.634-11.634c-0.859-0.874-0.859-2.269-0.016-3.119l0,0c0.874-0.882,2.276-0.882,3.151-0.008L158.763,62.952z"/>
	<path style="fill:#F9AB3A;" d="M155.628,51.326c0.874-0.866,2.261-0.874,3.135,0l0,0c0.859,0.859,0.859,2.261,0,3.127
		l-11.626,11.634c-0.874,0.866-2.276,0.866-3.151,0l0,0c-0.843-0.866-0.843-2.261,0.016-3.127L155.628,51.326z"/>
	<path style="fill:#F9AB3A;" d="M158.763,91.632c0.859,0.866,0.859,2.261,0,3.135l0,0c-0.874,0.851-2.261,0.851-3.135,0
		l-11.634-11.642c-0.859-0.866-0.859-2.269-0.016-3.127l0,0c0.874-0.874,2.276-0.874,3.151-0.008L158.763,91.632z"/>
	<path style="fill:#F9AB3A;" d="M155.628,79.99c0.874-0.859,2.261-0.866,3.135,0l0,0c0.859,0.866,0.859,2.276,0,3.135
		l-11.634,11.642c-0.874,0.851-2.276,0.851-3.151,0l0,0c-0.843-0.874-0.843-2.269,0.016-3.135L155.628,79.99z"/>
	<path style="fill:#F9AB3A;" d="M158.763,120.296c0.859,0.866,0.859,2.269,0,3.135l0,0c-0.874,0.859-2.261,0.859-3.135,0
		l-11.634-11.642c-0.859-0.866-0.859-2.269-0.016-3.119l0,0c0.874-0.874,2.276-0.874,3.151-0.016L158.763,120.296z"/>
	<path style="fill:#F9AB3A;" d="M155.628,108.662c0.874-0.851,2.261-0.859,3.135,0l0,0c0.859,0.866,0.859,2.276,0,3.135
		l-11.634,11.642c-0.874,0.859-2.276,0.859-3.151,0l0,0c-0.843-0.866-0.843-2.269,0.016-3.135L155.628,108.662z"/>
	<path style="fill:#F9AB3A;" d="M158.763,148.976c0.859,0.866,0.859,2.269,0,3.135l0,0c-0.874,0.851-2.261,0.851-3.135,0
		l-11.634-11.65c-0.859-0.859-0.859-2.253-0.016-3.119l0,0c0.874-0.874,2.276-0.874,3.151-0.008L158.763,148.976z"/>
	<path style="fill:#F9AB3A;" d="M155.628,137.342c0.874-0.859,2.261-0.866,3.135,0l0,0c0.859,0.874,0.859,2.276,0,3.127
		l-11.634,11.65c-0.874,0.851-2.276,0.851-3.151,0l0,0c-0.843-0.866-0.843-2.269,0.016-3.135L155.628,137.342z"/>
	<path style="fill:#F9AB3A;" d="M158.763,177.648c0.859,0.866,0.859,2.269,0,3.135l0,0c-0.874,0.859-2.261,0.859-3.135,0
		l-11.634-11.642c-0.859-0.866-0.859-2.261-0.016-3.127l0,0c0.874-0.874,2.276-0.874,3.151,0L158.763,177.648z"/>
	<path style="fill:#F9AB3A;" d="M155.628,166.014c0.874-0.859,2.261-0.874,3.135,0l0,0c0.859,0.866,0.859,2.269,0,3.127
		l-11.634,11.642c-0.874,0.859-2.276,0.859-3.151,0l0,0c-0.843-0.866-0.843-2.269,0.016-3.135L155.628,166.014z"/>
	<path style="fill:#F9AB3A;" d="M360.137,62.952c0.859,0.866,0.859,2.261,0,3.127l0,0c-0.851,0.874-2.245,0.874-3.127,0.008
		l-11.634-11.634c-0.859-0.874-0.859-2.269,0-3.119l0,0c0.874-0.882,2.276-0.882,3.135-0.008L360.137,62.952z"/>
	<path style="fill:#F9AB3A;" d="M357.01,51.326c0.874-0.866,2.276-0.874,3.119,0l0,0c0.859,0.859,0.859,2.261,0,3.127
		l-11.611,11.634c-0.859,0.866-2.261,0.866-3.135,0l0,0c-0.859-0.866-0.859-2.261,0-3.127L357.01,51.326z"/>
	<path style="fill:#F9AB3A;" d="M360.137,91.632c0.859,0.866,0.859,2.261,0,3.135l0,0c-0.843,0.851-2.245,0.851-3.119,0
		l-11.634-11.642c-0.859-0.866-0.859-2.269,0-3.127l0,0c0.874-0.874,2.276-0.874,3.135-0.008L360.137,91.632z"/>
	<path style="fill:#F9AB3A;" d="M357.01,79.99c0.874-0.859,2.276-0.866,3.119,0l0,0c0.859,0.866,0.859,2.276,0,3.135l-11.618,11.642
		c-0.859,0.851-2.261,0.851-3.135,0l0,0c-0.859-0.874-0.859-2.269,0-3.135L357.01,79.99z"/>
	<path style="fill:#F9AB3A;" d="M360.137,120.296c0.859,0.866,0.859,2.269,0,3.135l0,0c-0.843,0.859-2.245,0.859-3.119,0
		l-11.634-11.642c-0.859-0.866-0.859-2.269,0-3.119l0,0c0.874-0.874,2.276-0.874,3.135-0.016L360.137,120.296z"/>
	<path style="fill:#F9AB3A;" d="M357.01,108.662c0.874-0.851,2.276-0.859,3.119,0l0,0c0.859,0.866,0.859,2.276,0,3.135
		l-11.618,11.642c-0.859,0.859-2.261,0.859-3.135,0l0,0c-0.859-0.866-0.859-2.269,0-3.135L357.01,108.662z"/>
	<path style="fill:#F9AB3A;" d="M360.137,148.976c0.859,0.866,0.859,2.269,0,3.135l0,0c-0.843,0.851-2.245,0.851-3.119,0
		l-11.634-11.65c-0.859-0.859-0.859-2.253,0-3.119l0,0c0.874-0.874,2.276-0.874,3.135-0.008L360.137,148.976z"/>
	<path style="fill:#F9AB3A;" d="M357.01,137.342c0.874-0.859,2.276-0.866,3.119,0l0,0c0.859,0.874,0.859,2.276,0,3.127
		l-11.618,11.65c-0.859,0.851-2.261,0.851-3.135,0l0,0c-0.859-0.866-0.859-2.269,0-3.135L357.01,137.342z"/>
	<path style="fill:#F9AB3A;" d="M360.137,177.648c0.859,0.866,0.859,2.269,0,3.135l0,0c-0.843,0.859-2.245,0.859-3.119,0
		l-11.634-11.642c-0.859-0.866-0.859-2.261,0-3.127l0,0c0.874-0.874,2.276-0.874,3.135,0L360.137,177.648z"/>
	<path style="fill:#F9AB3A;" d="M357.01,166.014c0.874-0.859,2.276-0.874,3.119,0l0,0c0.859,0.866,0.859,2.269,0,3.127
		l-11.618,11.642c-0.859,0.859-2.261,0.859-3.135,0l0,0c-0.859-0.866-0.859-2.269,0-3.135L357.01,166.014z"/>
</g>
<g>
</g>
<g>
</g>
<g>
</g>
<g>
</g>
<g>
</g>
<g>
</g>
<g>
</g>
<g>
</g>
<g>
</g>
<g>
</g>
<g>
</g>
<g>
</g>
<g>
</g>
<g>
</g>
<g>
</g>
</svg>
