<?xml version="1.0" encoding="iso-8859-1"?>
<!-- Generator: Adobe Illustrator 19.0.0, SVG Export Plug-In . SVG Version: 6.00 Build 0)  -->
<svg version="1.1" id="Layer_1" xmlns="http://www.w3.org/2000/svg" xmlns:xlink="http://www.w3.org/1999/xlink" x="0px" y="0px"
	 viewBox="0 0 512 512" style="enable-background:new 0 0 512 512;" xml:space="preserve">
<path style="fill:#FFB656;" d="M408.143,158.451H103.857c-17.446,0-31.638,14.193-31.638,31.638v195.797v86.93
	c0,17.446,14.193,31.638,31.638,31.638h86.93h130.425h86.93c17.446,0,31.638-14.193,31.638-31.638v-86.93V190.089
	C439.781,172.643,425.588,158.451,408.143,158.451z"/>
<path style="fill:#FFA733;" d="M408.143,158.451h-32.876c17.446,0,31.638,14.193,31.638,31.638v195.797v86.93
	c0,17.446-14.193,31.638-31.638,31.638h32.876c17.446,0,31.638-14.193,31.638-31.638v-86.93V190.089
	C439.781,172.643,425.588,158.451,408.143,158.451z"/>
<path style="fill:#C6C5CB;" d="M256,202.644c-12.185,0-22.097-9.912-22.097-22.097V72.758h44.194v107.789
	C278.097,192.732,268.185,202.644,256,202.644z"/>
<path style="fill:#ACABB1;" d="M264.084,180.547V72.758h14.013v107.789c0,12.185-9.912,22.097-22.097,22.097
	c-2.451,0-4.802-0.417-7.006-1.158C257.75,198.548,264.084,190.281,264.084,180.547z"/>
<path style="fill:#FE5022;" d="M256,7.545c30.015,0,54.434,24.419,54.434,54.434S286.015,116.413,256,116.413
	s-54.434-24.419-54.434-54.434S225.985,7.545,256,7.545z"/>
<path style="fill:#FF3501;" d="M267.194,33.094c22.608,19.743,24.939,54.198,5.197,76.805c-1.603,1.836-3.28,3.762-5.063,5.329
	c11.355-2.272,22.044-8.387,30.233-17.764c19.743-22.608,17.411-57.063-5.197-76.805c-20.772-18.14-51.537-17.63-71.711,0.106
	C236.676,17.558,253.962,21.538,267.194,33.094z"/>
<path style="fill:#FFA733;" d="M72.219,384.046l120.408,120.407h-88.77c-17.446,0-31.638-14.193-31.638-31.638V384.046z"/>
<g>
	<path style="fill:#CC7400;" d="M148.211,264.084h129.347c4.466,0,8.084-3.62,8.084-8.084c0-4.465-3.618-8.084-8.084-8.084H148.211
		c-4.465,0-8.084,3.62-8.084,8.084C140.126,260.465,143.746,264.084,148.211,264.084z"/>
	<path style="fill:#CC7400;" d="M320.674,264.084h43.116c4.466,0,8.084-3.62,8.084-8.084c0-4.465-3.618-8.084-8.084-8.084h-43.116
		c-4.466,0-8.084,3.62-8.084,8.084C312.589,260.465,316.208,264.084,320.674,264.084z"/>
	<path style="fill:#CC7400;" d="M148.211,328.758h64.674c4.465,0,8.084-3.62,8.084-8.084s-3.62-8.084-8.084-8.084h-64.674
		c-4.465,0-8.084,3.62-8.084,8.084S143.746,328.758,148.211,328.758z"/>
	<path style="fill:#CC7400;" d="M247.916,320.674c0,4.465,3.62,8.084,8.084,8.084h107.789c4.466,0,8.084-3.62,8.084-8.084
		s-3.618-8.084-8.084-8.084H256C251.535,312.589,247.916,316.209,247.916,320.674z"/>
	<path style="fill:#CC7400;" d="M169.768,377.263h-21.558c-4.465,0-8.084,3.62-8.084,8.084s3.62,8.084,8.084,8.084h21.558
		c4.465,0,8.084-3.62,8.084-8.084S174.233,377.263,169.768,377.263z"/>
	<path style="fill:#CC7400;" d="M277.558,377.263h-64.674c-4.465,0-8.084,3.62-8.084,8.084s3.62,8.084,8.084,8.084h64.674
		c4.466,0,8.084-3.62,8.084-8.084S282.024,377.263,277.558,377.263z"/>
</g>
<path style="fill:#ED8800;" d="M163.384,384.046c16.124,0,29.243,13.119,29.243,29.243v91.165L72.219,384.046H163.384z"/>
<path d="M64.674,190.089v282.729c0,21.605,17.578,39.183,39.184,39.183h304.286c21.605,0,39.183-17.577,39.183-39.184V190.089
	c0-21.606-17.577-39.184-39.184-39.184H285.642v-34.51c19.25-10.529,32.337-30.971,32.337-54.416C317.979,27.803,290.176,0,256,0
	s-61.979,27.803-61.979,61.979c0,23.444,13.087,43.889,32.337,54.416v34.51H103.857C82.252,150.905,64.674,168.482,64.674,190.089z
	 M256,107.789c-25.26,0-45.811-20.55-45.811-45.811S230.74,16.168,256,16.168s45.811,20.55,45.811,45.811
	S281.26,107.789,256,107.789z M256,123.958c4.627,0,9.133-0.526,13.474-1.493v58.082c0,7.43-6.044,13.474-13.474,13.474
	c-7.43,0-13.474-6.044-13.474-13.474v-58.082C246.867,123.432,251.373,123.958,256,123.958z M80.842,404.865l90.967,90.967h-67.952
	c-12.691,0-23.015-10.324-23.015-23.015V404.865z M80.842,190.089c0-12.712,10.304-23.015,23.015-23.015h122.501v13.474
	c0,16.644,13.788,30.127,30.541,29.629c16.122-0.48,28.743-14.131,28.743-30.26v-12.843h122.501
	c12.711,0,23.015,10.304,23.015,23.015v282.729c0,12.711-10.304,23.015-23.015,23.015H199.411v-81.78
	c0-20.317-16.471-36.789-36.789-36.789h-17.497c-4.465,0-8.084,3.62-8.084,8.084c0,4.465,3.62,8.084,8.084,8.084h17.497
	c11.388,0,20.62,9.232,20.62,20.62V484.4l-90.968-90.969h17.205c4.465,0,8.084-3.62,8.084-8.084s-3.62-8.084-8.084-8.084H80.842
	V190.089z"/>
<g>
</g>
<g>
</g>
<g>
</g>
<g>
</g>
<g>
</g>
<g>
</g>
<g>
</g>
<g>
</g>
<g>
</g>
<g>
</g>
<g>
</g>
<g>
</g>
<g>
</g>
<g>
</g>
<g>
</g>
</svg>
